<svg xmlns="http://www.w3.org/2000/svg" viewBox="0 0 24 24" width="100" height="100">
  <rect width="24" height="24" rx="5.5" fill="#1f9d6b"/>
  <g transform="translate(2.4 2.4) scale(0.8)">
    <path d="M6.5 13.6 C5 13 4.2 11.6 4.5 10 C4.6 9.3 5 8.6 5.7 8.2 C5.4 7 6 6.1 7 5.8 C7 4.6 7.8 3.8 9 3.8 C9.3 2.8 10.5 2.2 12 2.2 C13.5 2.2 14.7 2.8 15 3.8 C16.2 3.8 17 4.6 17 5.8 C18 6.1 18.6 7 18.3 8.2 C19 8.6 19.4 9.3 19.5 10 C19.8 11.6 19 13 17.5 13.6 Z" fill="#fff"/>
    <path d="M6.3 13.6 L17.7 13.6 L17.7 19.3 C17.7 20.2 17 21 16.1 21 L7.9 21 C7 21 6.3 20.2 6.3 19.3 Z" fill="#fff"/>
    <path d="M8 13.4 C7.7 10.4 8 7.4 8.9 5 M10 13.5 C9.9 10 10 6.6 10.5 3.4 M12 13.5 V2.6 M14 13.5 C14.1 10 14 6.6 13.5 3.4 M16 13.4 C16.3 10.4 16 7.4 15.1 5" stroke="#16433a" stroke-width="0.5" stroke-linecap="round" fill="none"/>
  </g>
</svg>
